<svg fill="none" height="15" viewBox="0 0 15 15" width="15" xmlns="http://www.w3.org/2000/svg"><path clip-rule="evenodd" d="m7.5 3c-1.86667 0-3.03333 1-3.5 2.99999.7-1 1.51667-1.37499 2.45-1.125.53252.14264.91314.55656 1.33443 1.01475.68631.74639 1.48063 1.61025 3.21557 1.61025 1.8667 0 3.0333-1 3.5-2.99999-.7.99999-1.5167 1.37499-2.45 1.12499-.5325-.14264-.9131-.55655-1.3344-1.01474-.6863-.74639-1.48066-1.61025-3.2156-1.61025zm-3.5 4.49999c-1.86667 0-3.033333.99999-3.5 3.00001.7-1.00002 1.51667-1.37502 2.45-1.12502.53252.14264.91314.55656 1.33443 1.01472.68631.7464 1.48063 1.6103 3.21557 1.6103 1.86667 0 3.0333-1 3.5-3.00002-.7 1-1.51667 1.37502-2.45 1.12502-.53252-.14266-.91314-.55657-1.33443-1.01477-.68631-.74638-1.48063-1.61024-3.21557-1.61024z" fill-rule="evenodd" stroke="#000" stroke-linejoin="round"/></svg>